<svg width="513" height="513" viewBox="0 0 513 513" fill="none" xmlns="http://www.w3.org/2000/svg">
<g clip-path="url(#clip0_3_35)">
<path d="M494.256 462.503L452.63 229.398C452.015 225.999 449.246 223.338 445.941 222.494C295.507 192.499 268.524 114.615 265.282 102.898H371.701C377.211 102.898 382.102 99.3728 383.845 94.1465C385.587 88.9193 383.789 83.1647 379.382 79.8591L347.518 55.9656L379.382 32.0722C383.789 28.7665 385.587 23.0111 383.845 17.7848C382.103 12.5576 377.211 9.03279 371.701 9.03279H265.033C265.033 4.32044 261.213 0.5 256.5 0.5C251.788 0.5 247.967 4.32044 247.967 9.03363V101.953C246.064 109.633 222.247 191.553 67.0599 222.537C63.7459 223.38 61.0021 226.03 60.3697 229.442L18.7446 462.503C6.58878 466.132 -1.05882 478.135 0.787154 490.685C2.63313 503.236 13.415 512.527 26.1 512.501H486.9C499.586 512.527 510.367 503.236 512.213 490.685C514.06 478.135 506.411 466.132 494.256 462.503ZM476.711 461.3H441.579C431.724 433.943 426.843 405.043 427.167 375.966C426.786 338.17 431.603 300.501 441.486 264.017L476.711 461.3ZM358.9 26.1L332.728 45.7263C329.504 48.1434 327.608 51.9378 327.608 55.9665C327.608 59.9952 329.505 63.7888 332.728 66.2067L358.9 85.8329H265.033V26.1H358.9ZM256.5 126.878C272.142 157.462 315.747 211.128 432.372 236.958C416.593 281.564 409.047 328.664 410.101 375.966C409.85 404.945 414.34 433.771 423.395 461.3H377.921C273.737 412.507 265.033 340.621 265.033 265.033V205.299C265.033 200.586 261.213 196.766 256.5 196.766C251.786 196.766 247.966 200.586 247.966 205.299V265.033C247.966 340.621 239.262 412.506 135.079 461.3H89.6046C98.6597 433.771 103.15 404.946 102.899 375.966C103.95 328.672 96.4039 281.581 80.6275 236.983C197.253 211.128 240.858 157.462 256.5 126.878ZM341.748 461.3H171.251C222.366 430.051 245.876 391.557 256.5 350.58C267.124 391.557 290.633 430.051 341.748 461.3ZM71.5144 264.018C81.3968 300.501 86.215 338.171 85.8337 375.967C86.157 405.043 81.2759 433.943 71.4212 461.301H36.2889L71.5144 264.018ZM486.9 495.434H26.1C21.3868 495.434 17.5663 491.613 17.5663 486.9C17.5663 482.187 21.3868 478.366 26.1 478.366H486.9C491.613 478.366 495.434 482.187 495.434 486.9C495.434 491.613 491.613 495.434 486.9 495.434Z" fill="#7C782F"/>
<path d="M137.033 350.367H196.766C206.192 350.367 213.833 342.726 213.833 333.3V282.1C213.833 272.675 206.192 265.034 196.766 265.034H137.033C127.607 265.034 119.966 272.675 119.966 282.1V333.3C119.966 342.725 127.607 350.367 137.033 350.367ZM137.033 282.1H196.766V333.3H137.033V282.1Z" fill="#7C782F"/>
<path d="M316.233 350.367H375.967C385.393 350.367 393.034 342.726 393.034 333.3V282.1C393.034 272.675 385.393 265.034 375.967 265.034H316.233C306.808 265.034 299.167 272.675 299.167 282.1V333.3C299.167 342.725 306.808 350.367 316.233 350.367ZM316.233 282.1H375.967V333.3H316.233V282.1Z" fill="#7C782F"/>
</g>
<defs>
<clipPath id="clip0_3_35">
<rect width="512" height="512" fill="white" transform="translate(0.5 0.5)"/>
</clipPath>
</defs>
</svg>
