<svg width="513" height="513" viewBox="0 0 513 513" fill="none" xmlns="http://www.w3.org/2000/svg">
<g clip-path="url(#clip0_3_42)">
<path d="M37.893 265.033C30.4085 271.432 26.0992 280.786 26.0992 290.633C26.0992 300.48 30.4085 309.834 37.893 316.233C30.4085 322.632 26.0992 331.986 26.0992 341.833C26.0992 351.68 30.4085 361.034 37.893 367.433C30.4085 373.832 26.0992 383.186 26.0992 393.033C26.0992 402.88 30.4085 412.234 37.893 418.633C25.4303 429.221 22.4491 447.267 30.8445 461.3H17.5666C8.14094 461.3 0.499933 468.941 0.499933 478.367V495.433C0.499933 504.859 8.14094 512.5 17.5666 512.5H495.433C504.859 512.5 512.5 504.859 512.5 495.433V478.367C512.5 468.941 504.859 461.3 495.433 461.3H482.155C490.551 447.267 487.57 429.221 475.107 418.633C482.591 412.234 486.901 402.88 486.901 393.033C486.901 383.186 482.591 373.832 475.107 367.433C482.591 361.034 486.901 351.68 486.901 341.833C486.901 331.986 482.591 322.632 475.107 316.233C482.591 309.834 486.901 300.48 486.901 290.633C486.901 280.786 482.591 271.432 475.107 265.033C485.765 255.995 489.667 241.275 484.886 228.144C499.785 222.523 510.314 209.074 512.195 193.262C514.075 177.45 506.994 161.906 493.829 152.948L280.496 7.88138C266.036 -2.02654 246.973 -2.02654 232.513 7.88138L19.1794 152.948C5.99792 161.875 -1.09857 177.413 0.78581 193.221C2.67019 209.029 13.2203 222.463 28.1309 228.041C23.3086 241.199 27.2061 255.968 37.893 265.033ZM43.1666 290.633C43.1666 281.208 50.8076 273.567 60.2333 273.567C69.6589 273.567 77.2999 281.208 77.2999 290.633C77.2999 300.059 69.6589 307.7 60.2333 307.7C55.7069 307.7 51.3659 305.902 48.1653 302.701C44.9647 299.501 43.1666 295.16 43.1666 290.633ZM128.5 205.3H93.9485L131.598 179.7H381.411L419.06 205.3H290.633C285.92 205.3 282.1 209.121 282.1 213.833C282.1 218.546 285.92 222.367 290.633 222.367H423.284C417.049 232.9 417.085 246.002 423.378 256.5H418.633C413.92 256.5 410.1 260.321 410.1 265.033C410.1 269.746 413.92 273.567 418.633 273.567H423.378C414.982 287.6 417.964 305.646 430.426 316.233C417.964 326.821 414.982 344.867 423.378 358.9H418.633C413.92 358.9 410.1 362.721 410.1 367.433C410.1 372.146 413.92 375.967 418.633 375.967H423.378C414.982 390 417.964 408.046 430.426 418.633C417.964 429.221 414.982 447.267 423.378 461.3H393.033V273.567C393.033 264.141 385.392 256.5 375.967 256.5H247.967C243.254 256.5 239.433 260.321 239.433 265.033C239.433 269.746 243.254 273.567 247.967 273.567H273.567V358.9H247.967C243.254 358.9 239.433 362.721 239.433 367.433C239.433 372.146 243.254 375.967 247.967 375.967H273.567V410.1H230.9C226.187 410.1 222.367 413.921 222.367 418.633C222.367 423.346 226.187 427.167 230.9 427.167H273.567V461.3H89.6221C95.9484 450.802 95.9484 437.665 89.6221 427.167H188.233C192.946 427.167 196.767 423.346 196.767 418.633C196.767 413.921 192.946 410.1 188.233 410.1H89.6221C95.9484 399.602 95.9484 386.465 89.6221 375.967H102.9C107.613 375.967 111.433 372.146 111.433 367.433C111.433 362.721 107.613 358.9 102.9 358.9H89.6221C98.0175 344.867 95.0363 326.821 82.5735 316.233C95.0363 305.646 98.0175 287.6 89.6221 273.567H102.9C107.613 273.567 111.433 269.746 111.433 265.033C111.433 260.321 107.613 256.5 102.9 256.5H89.6221C95.9151 246.002 95.9511 232.9 89.7159 222.367H128.5C133.213 222.367 137.033 218.546 137.033 213.833C137.033 209.121 133.213 205.3 128.5 205.3ZM194.343 137.033H318.657L356.34 162.633H156.66L194.343 137.033ZM219.44 119.967L256.5 94.7678L293.56 119.967H219.44ZM290.633 418.633V273.567H375.967V367.433H358.9C354.187 367.433 350.367 371.254 350.367 375.967C350.367 380.68 354.187 384.5 358.9 384.5H375.967V461.3H290.633V418.633ZM43.1666 341.833C43.1666 332.408 50.8076 324.767 60.2333 324.767C69.6589 324.767 77.2999 332.408 77.2999 341.833C77.2999 351.259 69.6589 358.9 60.2333 358.9C55.7069 358.9 51.3659 357.102 48.1653 353.901C44.9647 350.701 43.1666 346.36 43.1666 341.833ZM43.1666 393.033C43.1666 383.608 50.8076 375.967 60.2333 375.967C69.6589 375.967 77.2999 383.608 77.2999 393.033C77.2999 402.459 69.6589 410.1 60.2333 410.1C55.7069 410.1 51.3659 408.302 48.1653 405.101C44.9647 401.901 43.1666 397.56 43.1666 393.033ZM43.1666 444.233C43.1666 434.808 50.8076 427.167 60.2333 427.167C69.6589 427.167 77.2999 434.808 77.2999 444.233C77.2999 453.659 69.6589 461.3 60.2333 461.3C55.7069 461.3 51.3659 459.502 48.1653 456.301C44.9647 453.101 43.1666 448.76 43.1666 444.233ZM495.433 495.433H17.5666V478.367H495.433V495.433ZM469.833 444.233C469.833 453.659 462.192 461.3 452.767 461.3C443.341 461.3 435.7 453.659 435.7 444.233C435.7 434.808 443.341 427.167 452.767 427.167C462.192 427.167 469.833 434.808 469.833 444.233ZM469.833 393.033C469.833 402.459 462.192 410.1 452.767 410.1C443.341 410.1 435.7 402.459 435.7 393.033C435.7 383.608 443.341 375.967 452.767 375.967C462.192 375.967 469.833 383.608 469.833 393.033ZM469.833 341.833C469.833 351.259 462.192 358.9 452.767 358.9C443.341 358.9 435.7 351.259 435.7 341.833C435.7 332.408 443.341 324.767 452.767 324.767C462.192 324.767 469.833 332.408 469.833 341.833ZM469.833 290.633C469.833 300.059 462.192 307.7 452.767 307.7C443.341 307.7 435.7 300.059 435.7 290.633C435.7 281.208 443.341 273.567 452.767 273.567C462.192 273.567 469.833 281.208 469.833 290.633ZM435.7 239.433C435.664 232.552 439.791 226.332 446.145 223.689C452.466 227.895 459.802 230.324 467.384 230.721C471.114 236.91 470.541 244.776 465.956 250.36C461.37 255.944 453.765 258.036 446.969 255.581C440.173 253.127 435.659 246.659 435.7 239.433ZM22.0039 202.629C14.0564 190.941 17.0856 175.023 28.7709 167.071L242.104 22.004C250.779 16.0527 262.221 16.0527 270.896 22.004L484.229 167.071C491.996 172.129 496.422 180.99 495.801 190.238C495.18 199.486 489.609 207.675 481.236 211.65C472.862 215.624 462.995 214.762 455.438 209.396L261.304 77.3854C258.408 75.4147 254.601 75.4147 251.704 77.3854L57.5623 209.405C45.8717 217.35 29.9534 214.317 22.0039 202.629ZM43.1666 239.433C43.1743 236.367 44.0181 233.361 45.6071 230.738C53.1972 230.341 60.5401 227.906 66.8637 223.689C74.7408 227.011 78.9456 235.647 76.7013 243.896C74.4569 252.145 66.4559 257.461 57.9819 256.333C49.508 255.205 43.1756 247.982 43.1666 239.433Z" fill="#7C782F"/>
<path d="M119.967 273.567V358.9C119.967 368.326 127.608 375.967 137.033 375.967H205.3C214.726 375.967 222.367 368.326 222.367 358.9V324.767H247.967C252.68 324.767 256.5 320.946 256.5 316.233C256.5 311.521 252.68 307.7 247.967 307.7H222.367V273.567C222.367 264.141 214.726 256.5 205.3 256.5H137.033C127.608 256.5 119.967 264.141 119.967 273.567ZM137.033 324.767H162.633V358.9H137.033V324.767ZM179.7 358.9V324.767H205.3V358.9H179.7ZM205.3 307.7H179.7V273.567H205.3V307.7ZM162.633 273.567V307.7H137.033V273.567H162.633Z" fill="#7C782F"/>
<path d="M162.633 222.367H179.7C184.413 222.367 188.233 218.546 188.233 213.833C188.233 209.121 184.413 205.3 179.7 205.3H162.633C157.921 205.3 154.1 209.121 154.1 213.833C154.1 218.546 157.921 222.367 162.633 222.367Z" fill="#7C782F"/>
<path d="M358.9 324.767V307.7C358.9 298.274 351.259 290.633 341.834 290.633H324.767C315.341 290.633 307.7 298.274 307.7 307.7V324.767C307.7 334.192 315.341 341.833 324.767 341.833H341.834C351.259 341.833 358.9 334.192 358.9 324.767ZM324.767 324.767V307.7H341.834V324.767H324.767Z" fill="#7C782F"/>
</g>
<defs>
<clipPath id="clip0_3_42">
<rect width="512" height="512" fill="white" transform="translate(0.5 0.5)"/>
</clipPath>
</defs>
</svg>
