<svg width="513" height="513" viewBox="0 0 513 513" fill="none" xmlns="http://www.w3.org/2000/svg">
<g clip-path="url(#clip0_3_31)">
<path d="M499.91 495.713H488.327L265.901 50.8608L280.757 21.064C282.379 18.3682 282.357 14.9916 280.701 12.3169C279.044 9.64218 276.031 8.11857 272.895 8.36994C269.758 8.62132 267.026 10.6055 265.817 13.5099L256.5 32.0594L247.183 13.5099C245.974 10.6055 243.242 8.62132 240.105 8.36994C236.969 8.11857 233.956 9.64218 232.299 12.3169C230.643 14.9916 230.621 18.3682 232.243 21.064L247.099 50.8608L24.6732 495.713H13.0902C8.45465 495.713 4.69678 499.471 4.69678 504.107C4.69678 508.742 8.45465 512.5 13.0902 512.5H239.713C244.349 512.5 248.107 508.742 248.107 504.107C248.107 499.471 244.349 495.713 239.713 495.713H207.566C229.705 482.467 246.894 462.33 256.5 438.386C266.106 462.33 283.295 482.467 305.434 495.713H281.68C277.045 495.713 273.287 499.471 273.287 504.107C273.287 508.742 277.045 512.5 281.68 512.5H499.91C504.545 512.5 508.303 508.742 508.303 504.107C508.303 499.471 504.545 495.713 499.91 495.713ZM264.893 378.205V336.238H315.254C319.89 336.238 323.648 332.48 323.648 327.844C323.648 323.209 319.89 319.451 315.254 319.451H197.746C193.11 319.451 189.353 323.209 189.353 327.844C189.353 332.48 193.11 336.238 197.746 336.238H248.107V378.205H102.229L223.933 134.795H289.067L410.772 378.205H264.893ZM280.673 118.008H232.327L256.5 69.6621L280.673 118.008ZM147.385 495.713H43.4745L93.8351 394.992H113.812V411.779C113.812 416.414 117.569 420.172 122.205 420.172C126.841 420.172 130.598 416.414 130.598 411.779V394.992H155.779V411.779C155.779 416.414 159.537 420.172 164.172 420.172C168.808 420.172 172.566 416.414 172.566 411.779V394.992H197.746V411.779C197.746 416.414 201.504 420.172 206.139 420.172C210.775 420.172 214.533 416.414 214.533 411.779V394.992H248.107C248.107 450.619 203.012 495.713 147.385 495.713ZM264.893 394.992H298.467V411.779C298.467 416.414 302.225 420.172 306.861 420.172C311.496 420.172 315.254 416.414 315.254 411.779V394.992H340.434V411.779C340.434 416.414 344.192 420.172 348.828 420.172C353.463 420.172 357.221 416.414 357.221 411.779V394.992H382.402V411.779C382.402 416.414 386.16 420.172 390.795 420.172C395.431 420.172 399.189 416.414 399.189 411.779V394.992H419.165L469.526 495.713H365.615C309.988 495.713 264.893 450.619 264.893 394.992Z" fill="#7C782F"/>
<path d="M304.259 205.132C291.709 192.026 271.543 189.864 256.5 200.012C250.332 195.761 243.008 193.505 235.517 193.549C201.943 193.549 184.401 235.097 209.749 261.368L244.414 297.46C247.572 300.69 251.899 302.511 256.416 302.511C260.934 302.511 265.261 300.69 268.419 297.46L304.259 260.697C319.203 245.19 319.203 220.639 304.259 205.132ZM298.468 232.747C298.508 238.651 296.25 244.34 292.172 248.61L256.5 285.877L221.835 249.869C214.906 242.758 212.802 232.239 216.464 223.01C219.216 216.754 224.886 212.265 231.607 211.022C238.328 209.778 245.229 211.942 250.037 216.799C251.619 218.44 253.801 219.368 256.081 219.368C258.36 219.368 260.542 218.44 262.124 216.799C268.271 210.42 277.741 208.548 285.853 212.108C293.965 215.667 298.999 223.904 298.468 232.747Z" fill="#7C782F"/>
</g>
<defs>
<clipPath id="clip0_3_31">
<rect width="512" height="512" fill="white" transform="translate(0.5 0.5)"/>
</clipPath>
</defs>
</svg>
