<svg width="513" height="513" viewBox="0 0 513 513" fill="none" xmlns="http://www.w3.org/2000/svg">
<g clip-path="url(#clip0_3_49)">
<path d="M500.725 84.2259L435.5 61.7399V17.5519C435.5 8.13683 427.867 0.504052 418.452 0.504052H384.356C374.941 0.504052 367.309 8.13683 367.309 17.5519V38.2221L259.279 0.97323C257.48 0.342582 255.52 0.342582 253.721 0.97323L12.274 84.2259C5.39776 86.5972 0.783164 93.0702 0.78418 100.344V124.953C0.783164 130.464 3.44692 135.636 7.93457 138.835C12.4222 142.034 18.1793 142.868 23.389 141.072L26.3554 140.024V418.174C26.3554 432.297 37.8045 443.745 51.9266 443.745H52.6598C52.2099 446.565 51.9652 449.414 51.9266 452.269C51.9002 479.104 69.8102 502.648 95.679 509.786C121.548 516.925 148.998 505.896 162.736 482.843C177.076 507.623 207.053 518.649 234.033 509.066C261.012 499.484 277.317 472.02 272.813 443.745H290.594V494.889C290.594 504.304 298.227 511.936 307.642 511.936H444.023C453.438 511.936 461.071 504.304 461.071 494.889V443.745C475.194 443.745 486.642 432.296 486.642 418.174V140.023L489.609 141.045C491.394 141.677 493.273 142 495.167 142C504.582 142 512.214 134.367 512.214 124.952V100.344C512.216 93.0702 507.602 86.5972 500.725 84.2259ZM384.357 17.5519H418.453V55.8579L384.357 44.1031V17.5519ZM111.594 494.888C88.0685 494.859 69.0039 475.794 68.9754 452.269C69.0018 449.401 69.3268 446.544 69.9473 443.745H87.5912C86.5818 446.475 86.0507 449.359 86.0232 452.269C86.0232 466.392 97.4724 477.84 111.594 477.84C125.716 477.84 137.166 466.391 137.166 452.269C137.137 449.358 136.607 446.475 135.598 443.745H153.242C153.862 446.545 154.187 449.402 154.213 452.269C154.185 475.794 135.12 494.859 111.594 494.888ZM120.118 452.269C120.118 456.977 116.301 460.792 111.594 460.792C106.887 460.792 103.071 456.976 103.071 452.269C103.071 447.562 106.887 443.745 111.594 443.745C116.301 443.745 120.118 447.561 120.118 452.269ZM256.499 452.269C256.499 475.807 237.418 494.888 213.88 494.888C190.342 494.888 171.261 475.807 171.261 452.269C171.288 449.401 171.613 446.544 172.233 443.745H189.877C188.868 446.475 188.337 449.359 188.309 452.269C188.309 466.392 199.758 477.84 213.88 477.84C228.002 477.84 239.452 466.391 239.452 452.269C239.423 449.358 238.893 446.475 237.884 443.745H255.527C256.148 446.544 256.474 449.401 256.499 452.269ZM222.405 452.269C222.405 456.977 218.588 460.792 213.881 460.792C209.173 460.792 205.358 456.976 205.358 452.269C205.358 447.562 209.174 443.745 213.881 443.745C218.588 443.744 222.405 447.561 222.405 452.269ZM435.501 426.696H316.166V222.125H435.5V426.696H435.501ZM307.643 494.888V477.84H444.024V494.888H307.643ZM444.024 460.792H307.643V443.744H444.024V460.792ZM469.595 418.173C469.595 422.881 465.779 426.696 461.072 426.696H452.549V222.125C452.549 212.71 444.916 205.077 435.501 205.077H316.166C306.751 205.077 299.118 212.71 299.118 222.125V426.697H51.9276C47.2196 426.697 43.4042 422.881 43.4042 418.174V134.15L256.5 60.6655L469.596 134.15V418.173H469.595ZM495.168 124.953L259.279 43.5922C257.48 42.9616 255.52 42.9616 253.721 43.5922L17.832 124.952V100.344L256.499 18.0464L495.168 100.344V124.953Z" fill="#7C782F"/>
<path d="M77.499 205.077C68.0839 205.077 60.4512 212.709 60.4512 222.124V332.935C60.4512 342.35 68.0839 349.983 77.499 349.983H247.976C257.391 349.983 265.024 342.35 265.024 332.935V222.124C265.024 212.709 257.391 205.077 247.976 205.077H77.499ZM247.976 222.124V298.839H77.499V222.124H247.976ZM77.499 332.935V315.887H247.976V332.935H77.499Z" fill="#7C782F"/>
<path fill-rule="evenodd" clip-rule="evenodd" d="M418.453 349.982C423.161 349.982 426.976 346.165 426.976 341.458V324.411C426.976 319.703 423.16 315.887 418.453 315.887C413.746 315.887 409.93 319.704 409.93 324.411V341.458C409.929 346.166 413.745 349.982 418.453 349.982Z" fill="#7C782F"/>
</g>
<defs>
<clipPath id="clip0_3_49">
<rect width="512" height="512" fill="white" transform="translate(0.5 0.5)"/>
</clipPath>
</defs>
</svg>
